<?xml version="1.0" encoding="UTF-8" ?>
<!DOCTYPE svg PUBLIC "-//W3C//DTD SVG 1.1//EN" "http://www.w3.org/Graphics/SVG/1.1/DTD/svg11.dtd">
<svg width="1219pt" height="511pt" viewBox="0 0 1219 511" version="1.1" xmlns="http://www.w3.org/2000/svg">
<g id="#110401d9">
<path fill="#110401" opacity="0.85" d=" M 293.03 19.39 C 310.03 18.77 327.04 19.06 344.05 19.00 C 388.79 19.08 433.96 17.53 478.10 26.15 C 498.36 30.16 518.94 33.32 538.41 40.47 C 559.06 47.93 578.91 58.09 596.16 71.77 C 608.36 81.70 619.93 93.75 624.73 109.10 C 629.47 124.27 625.00 140.46 618.31 154.32 C 606.40 178.65 588.52 199.39 570.12 219.03 C 558.99 231.79 545.30 241.87 531.48 251.49 C 511.11 265.70 489.93 278.75 468.12 290.62 C 481.86 305.67 495.62 320.74 507.97 336.97 C 511.53 341.81 515.08 346.71 517.91 352.04 C 527.67 371.82 535.16 392.90 538.28 414.80 C 541.69 438.75 539.27 463.72 530.02 486.16 C 528.06 486.74 526.03 487.12 523.99 487.04 C 499.33 486.83 474.68 487.34 450.03 487.58 C 424.00 487.62 397.97 487.51 371.95 487.67 C 369.50 488.05 366.68 485.57 367.93 483.07 C 377.61 457.06 379.70 428.02 372.57 401.12 C 365.89 376.36 350.57 354.44 330.91 338.18 C 316.73 326.20 300.52 316.82 283.61 309.26 C 265.20 301.54 245.57 297.24 225.94 293.97 C 202.82 290.39 179.43 288.05 156.01 288.59 C 134.68 288.78 113.37 289.76 92.03 289.61 C 81.50 290.13 70.91 284.75 65.00 276.03 C 56.81 264.51 56.75 247.78 65.27 236.41 C 72.11 226.98 83.57 222.22 94.82 220.74 C 138.12 216.92 181.56 214.29 225.03 213.99 C 255.03 212.09 285.07 215.09 314.85 218.54 C 348.05 222.48 379.29 235.71 408.38 251.66 C 410.16 252.99 411.36 250.51 412.60 249.61 C 421.20 241.53 430.01 233.67 438.61 225.59 C 449.23 214.86 460.56 204.53 468.57 191.60 C 474.10 181.46 480.45 170.94 480.45 159.01 C 480.77 148.65 475.03 139.16 467.80 132.17 C 457.31 121.98 444.19 115.02 430.95 109.09 C 392.86 94.28 351.62 90.29 311.08 89.46 C 287.09 88.24 263.06 89.49 239.06 89.69 C 228.72 90.31 218.35 89.68 208.03 90.51 C 185.03 90.68 162.05 91.74 139.05 91.61 C 128.49 92.14 117.88 86.74 111.98 78.00 C 104.55 67.46 103.75 52.58 110.32 41.43 C 115.63 32.02 125.65 26.10 136.01 23.85 C 145.52 21.35 155.42 22.37 165.12 21.58 C 181.41 21.02 197.71 21.19 214.00 20.44 C 228.00 20.53 241.98 19.74 255.99 19.99 C 268.33 19.52 280.68 19.30 293.03 19.39 M 155.02 25.17 C 146.09 25.35 136.91 25.90 128.66 29.62 C 119.96 33.31 112.66 40.72 110.17 49.96 C 106.09 63.65 112.94 79.90 126.11 85.81 C 131.33 88.52 137.31 88.60 143.04 88.40 C 194.68 87.92 246.30 85.59 297.95 85.92 C 343.20 86.34 389.43 89.56 432.03 106.05 C 444.69 111.61 457.09 118.25 467.52 127.43 C 475.84 134.75 482.77 144.62 483.60 155.97 C 484.58 167.71 479.35 178.71 473.86 188.73 C 469.35 197.80 462.62 205.49 455.78 212.87 C 441.37 228.17 425.52 242.01 410.08 256.25 C 381.39 240.44 350.86 226.66 318.12 222.22 C 293.88 219.23 269.50 216.79 245.05 216.70 C 234.02 216.64 223.00 217.35 211.96 217.43 C 173.22 218.01 134.53 220.60 95.93 223.85 C 85.18 225.09 74.14 229.57 67.68 238.62 C 60.38 248.49 60.25 262.73 66.86 272.98 C 71.93 281.13 81.30 286.62 90.97 286.42 C 112.99 286.31 135.01 285.74 157.02 285.23 C 170.39 284.80 183.75 285.89 197.06 287.03 C 225.63 289.89 254.31 294.64 281.29 304.78 C 304.44 314.49 326.36 327.90 344.01 345.88 C 361.99 364.07 374.50 387.75 378.40 413.10 C 382.14 436.99 379.36 461.84 370.80 484.44 C 423.10 484.29 475.39 484.20 527.69 483.64 C 538.04 457.17 538.87 427.59 532.24 400.11 C 528.02 382.68 521.59 365.73 513.01 349.99 C 498.71 328.10 480.41 309.22 463.00 289.83 C 494.40 272.50 525.15 253.67 553.14 231.17 C 563.81 221.53 573.46 210.81 582.95 200.02 C 595.57 185.21 607.51 169.53 615.90 151.88 C 621.29 140.47 625.01 127.66 622.86 114.97 C 620.84 103.66 614.12 93.83 606.42 85.57 C 595.87 74.43 583.13 65.61 569.79 58.15 C 549.93 47.21 528.40 39.22 506.12 34.92 C 491.42 31.97 476.74 28.90 461.90 26.72 C 446.68 24.43 431.29 23.34 415.92 22.84 C 387.60 21.81 359.27 21.95 330.95 22.16 C 272.30 22.74 213.65 23.58 155.02 25.17 Z" />
<path fill="#110401" opacity="0.85" d=" M 715.16 79.04 C 720.03 77.90 725.06 78.58 730.01 78.42 C 738.51 78.52 747.02 78.22 755.51 78.54 C 757.95 78.54 758.91 80.90 759.10 82.96 C 769.40 139.33 779.77 195.69 790.04 252.06 C 790.74 254.21 789.68 257.28 787.01 257.04 C 777.03 257.22 767.05 257.01 757.08 257.13 C 755.13 257.05 753.11 257.30 751.23 256.72 C 749.63 256.09 749.56 254.25 749.22 252.84 C 747.09 240.42 745.09 227.98 742.86 215.58 C 723.62 215.60 704.39 215.57 685.16 215.60 C 679.17 228.75 673.17 241.91 666.99 254.97 C 666.13 257.59 663.12 257.06 660.98 257.13 C 651.98 256.95 642.97 257.35 633.99 256.94 C 631.35 256.21 631.48 252.80 632.68 250.88 C 660.25 193.64 687.47 136.23 715.16 79.04 M 717.23 81.74 C 689.85 139.21 662.20 196.55 634.78 253.99 C 644.52 254.01 654.26 253.99 664.00 254.00 C 670.45 240.13 676.74 226.20 683.25 212.36 C 704.02 212.43 724.80 212.36 745.58 212.39 C 747.98 226.26 750.23 240.15 752.70 254.01 C 764.20 253.98 775.69 254.02 787.19 253.99 C 776.72 196.55 766.12 139.14 755.67 81.69 C 742.86 81.67 730.04 81.58 717.23 81.74 Z" />
<path fill="#110401" opacity="0.85" d=" M 1058.43 78.54 C 1076.30 78.23 1094.20 78.52 1112.08 78.40 C 1125.51 78.87 1139.74 80.12 1151.27 87.74 C 1160.82 93.66 1168.50 102.32 1173.52 112.35 C 1181.13 126.95 1184.07 143.64 1183.75 160.01 C 1183.58 182.42 1176.75 204.69 1164.49 223.43 C 1156.57 235.47 1145.17 245.18 1132.12 251.23 C 1119.15 256.59 1104.83 257.11 1090.99 257.08 C 1070.66 257.08 1050.33 257.17 1030.01 257.04 C 1027.39 257.27 1025.94 254.36 1026.74 252.12 C 1036.23 195.48 1045.67 138.83 1055.14 82.19 C 1055.28 80.34 1056.43 78.63 1058.43 78.54 M 1058.03 83.98 C 1048.63 140.66 1039.10 197.32 1029.67 254.00 C 1050.78 254.00 1071.89 254.01 1093.01 253.99 C 1105.06 253.73 1117.46 253.34 1128.90 249.12 C 1142.22 243.54 1153.74 233.76 1161.75 221.76 C 1173.02 204.68 1179.62 184.52 1180.43 164.05 C 1181.15 147.96 1179.16 131.40 1172.13 116.75 C 1167.13 105.62 1158.90 95.92 1148.35 89.70 C 1137.24 82.81 1123.74 81.94 1111.00 81.68 C 1093.61 81.69 1076.22 81.56 1058.84 81.74 C 1058.63 82.30 1058.23 83.42 1058.03 83.98 Z" />
<path fill="#110401" opacity="0.85" d=" M 831.30 81.48 C 831.51 78.64 834.73 78.30 836.99 78.39 C 855.99 78.48 875.01 78.33 894.02 78.46 C 904.13 79.23 914.54 78.31 924.30 81.66 C 936.22 85.28 946.66 93.52 952.47 104.60 C 961.61 121.42 960.84 142.80 951.55 159.39 C 945.40 169.89 936.28 179.30 924.59 183.39 C 916.35 186.16 907.69 187.55 899.04 188.00 C 883.42 188.06 867.80 188.06 852.19 188.00 C 848.60 210.04 844.87 232.06 841.10 254.07 C 841.06 256.20 838.99 257.41 837.03 257.09 C 826.68 257.08 816.32 257.18 805.98 257.04 C 803.38 257.24 801.95 254.37 802.74 252.15 C 812.29 195.26 821.69 138.35 831.30 81.48 M 834.34 81.78 C 824.95 139.21 815.18 196.58 805.67 254.00 C 816.41 254.00 827.17 254.00 837.92 254.00 C 841.78 231.02 845.74 208.07 849.45 185.07 C 862.62 184.87 875.80 185.03 888.97 184.99 C 900.56 185.09 912.35 184.20 923.39 180.46 C 936.07 175.97 945.61 165.10 951.14 153.13 C 958.26 136.63 957.36 116.19 946.68 101.40 C 938.29 89.28 923.54 82.61 909.03 82.27 C 884.15 81.27 859.23 81.68 834.34 81.78 Z" />
<path fill="#110401" opacity="0.85" d=" M 986.22 79.39 C 988.24 78.09 990.74 78.46 993.03 78.38 C 1002.00 78.53 1010.98 78.25 1019.95 78.50 C 1022.22 78.39 1023.94 80.71 1023.47 82.87 C 1014.23 138.56 1004.84 194.23 995.61 249.92 C 995.02 252.42 995.24 256.52 991.99 257.01 C 981.31 257.18 970.62 257.13 959.95 257.04 C 957.36 257.23 955.95 254.34 956.74 252.13 C 965.80 198.08 974.79 144.03 983.85 89.99 C 984.68 86.49 984.42 82.59 986.22 79.39 M 959.66 254.00 C 970.35 254.00 981.03 254.01 991.72 253.98 C 1001.23 196.54 1010.92 139.12 1020.45 81.67 C 1009.82 81.60 999.19 81.75 988.56 81.59 C 978.74 139.02 969.32 196.53 959.66 254.00 Z" />
<path fill="#110401" opacity="0.85" d=" M 861.99 109.93 C 862.38 108.90 861.96 106.43 863.85 106.90 C 873.90 106.89 883.96 106.83 894.01 106.97 C 899.33 107.24 904.79 107.31 909.89 109.04 C 918.20 112.31 923.13 121.29 923.13 130.00 C 923.80 139.72 919.55 149.87 911.32 155.33 C 905.48 159.09 898.23 158.95 891.55 159.42 C 879.03 159.77 866.50 159.42 853.98 159.61 C 856.37 143.01 859.44 126.51 861.99 109.93 M 865.16 110.00 C 862.80 125.49 860.08 140.92 857.59 156.40 C 871.44 156.28 885.31 156.88 899.12 155.72 C 903.94 155.33 909.00 154.05 912.36 150.32 C 919.51 143.82 921.49 133.14 919.07 124.04 C 917.35 117.58 911.84 111.87 905.03 111.06 C 891.81 109.31 878.45 110.23 865.16 110.00 Z" />
<path fill="#110401" opacity="0.85" d=" M 1086.01 107.23 C 1099.46 107.69 1113.50 105.72 1126.37 110.69 C 1134.20 113.59 1140.01 120.39 1143.05 128.02 C 1149.36 143.21 1148.45 160.23 1145.74 176.12 C 1142.83 191.05 1137.96 206.79 1126.04 217.06 C 1119.34 223.51 1110.29 227.02 1101.07 227.60 C 1089.28 228.40 1077.44 227.83 1065.63 228.00 C 1072.39 187.74 1079.05 147.45 1086.01 107.23 M 1088.68 110.57 C 1082.11 148.66 1075.64 186.78 1069.47 224.94 C 1081.69 224.66 1094.00 225.57 1106.13 223.72 C 1113.94 222.46 1120.92 218.04 1126.29 212.35 C 1134.67 204.14 1138.60 192.68 1141.39 181.56 C 1144.45 168.03 1145.56 153.87 1143.40 140.12 C 1141.40 129.91 1136.68 118.81 1126.64 114.27 C 1114.72 108.87 1101.33 111.05 1088.68 110.57 Z" />
<path fill="#110401" opacity="0.85" d=" M 722.45 126.58 C 724.83 122.02 726.33 116.98 729.32 112.77 C 733.78 137.94 738.22 163.11 742.66 188.28 C 726.40 188.28 710.13 188.30 693.87 188.27 C 703.36 167.69 712.94 147.15 722.45 126.58 M 698.88 185.00 C 712.23 185.00 725.58 185.00 738.94 185.00 C 735.05 164.32 731.73 143.53 727.79 122.86 C 717.99 143.50 708.54 164.30 698.88 185.00 Z" />
<path fill="#110401" opacity="0.85" d=" M 207.21 116.27 C 217.45 115.69 227.72 116.24 237.97 115.85 C 254.98 115.04 272.01 115.59 289.03 115.38 C 305.39 115.04 321.11 129.31 320.64 146.01 C 321.56 155.35 318.48 165.08 311.75 171.71 C 304.48 179.50 293.89 183.18 283.53 184.42 C 267.81 185.62 252.02 184.49 236.29 185.36 C 229.21 185.79 222.11 185.41 215.03 185.71 C 205.06 186.31 195.06 185.67 185.09 186.49 C 161.06 186.70 137.06 187.79 113.03 187.60 C 105.32 187.42 97.94 183.92 92.36 178.70 C 86.14 172.45 82.48 163.77 82.34 154.95 C 82.01 143.92 87.55 132.82 96.76 126.67 C 105.76 120.24 117.11 118.28 127.95 118.00 C 136.66 118.14 145.33 117.15 154.04 117.38 C 164.37 116.68 174.73 117.32 185.06 116.63 C 192.43 116.19 199.83 116.61 207.21 116.27 M 200.44 119.63 C 175.96 120.07 151.47 120.54 127.00 121.33 C 117.94 121.55 108.63 123.13 100.78 127.89 C 92.52 132.72 86.55 141.47 85.70 151.07 C 84.21 163.88 91.57 177.39 103.66 182.28 C 109.72 185.14 116.54 184.33 123.02 184.36 C 166.02 183.84 208.99 182.30 251.99 181.90 C 261.69 181.86 271.40 181.78 281.10 181.36 C 289.60 180.77 298.21 178.36 305.14 173.24 C 312.20 168.11 317.08 159.81 317.45 151.01 C 318.70 138.38 311.27 125.28 299.35 120.61 C 293.58 117.96 287.12 118.63 280.96 118.64 C 254.12 118.60 227.28 119.16 200.44 119.63 Z" />
<path fill="#110401" opacity="0.85" d=" M 686.10 315.04 C 686.32 312.67 688.82 311.77 690.89 311.97 C 738.28 312.04 785.68 311.96 833.07 312.01 C 835.58 311.86 837.13 314.58 836.35 316.82 C 834.39 325.42 832.47 334.03 830.43 342.61 C 829.89 345.58 826.38 345.66 824.02 345.61 C 792.27 345.54 760.53 345.63 728.78 345.57 C 725.58 358.81 722.61 372.11 719.65 385.40 C 745.77 385.45 771.90 385.36 798.03 385.45 C 800.57 385.23 803.60 386.91 802.61 389.89 C 800.80 398.25 798.93 406.61 796.90 414.92 C 796.64 416.82 794.76 417.66 793.04 417.56 C 766.10 417.64 739.16 417.53 712.22 417.61 C 707.12 440.40 701.82 463.15 696.72 485.94 C 696.28 487.54 696.01 489.59 694.27 490.33 C 692.92 490.79 691.45 490.65 690.06 490.71 C 677.02 490.60 663.98 490.78 650.95 490.64 C 648.58 490.90 646.29 488.57 647.17 486.22 C 660.18 429.17 673.04 372.08 686.10 315.04 M 689.23 315.17 C 676.28 372.62 663.06 430.01 650.18 487.48 C 664.50 487.43 678.82 487.57 693.13 487.41 C 698.63 463.12 704.24 438.85 709.69 414.55 C 737.77 414.21 765.86 414.67 793.94 414.32 C 795.70 405.77 797.91 397.31 799.60 388.75 C 771.68 388.76 743.75 388.68 715.83 388.79 C 718.87 373.20 722.77 357.77 726.27 342.27 C 759.91 342.32 793.55 342.25 827.20 342.31 C 829.41 333.28 831.57 324.23 833.37 315.11 C 785.33 315.20 737.28 315.07 689.23 315.17 Z" />
<path fill="#110401" opacity="0.85" d=" M 842.01 315.08 C 842.27 312.71 844.82 311.76 846.92 311.97 C 900.31 312.05 953.70 311.95 1007.09 312.02 C 1009.57 311.93 1011.12 314.70 1010.28 316.91 C 1008.28 325.56 1006.40 334.25 1004.28 342.87 C 1003.80 345.29 1001.03 345.56 999.04 345.59 C 980.75 345.59 962.47 345.58 944.18 345.59 C 933.41 392.74 922.67 439.90 911.92 487.06 C 911.69 489.02 910.19 490.91 908.04 490.64 C 894.69 490.76 881.33 490.62 867.97 490.70 C 866.35 490.59 864.48 490.90 863.19 489.70 C 861.95 488.40 862.42 486.62 862.75 485.08 C 873.34 438.60 883.98 392.13 894.52 345.63 C 879.67 345.53 864.83 345.62 849.98 345.58 C 845.65 345.52 841.28 345.94 837.02 345.01 C 836.38 343.46 835.59 341.84 836.23 340.15 C 838.19 331.80 840.02 323.42 842.01 315.08 M 845.19 315.15 C 843.11 324.16 841.08 333.18 838.99 342.19 C 858.77 342.39 878.56 342.29 898.35 342.23 C 896.96 350.26 894.80 358.12 893.11 366.08 C 883.92 406.53 874.59 446.95 865.50 487.43 C 879.91 487.45 894.32 487.63 908.73 487.33 C 919.48 438.99 930.81 390.77 941.59 342.44 C 961.45 342.08 981.32 342.39 1001.18 342.29 C 1003.33 333.25 1005.53 324.22 1007.33 315.11 C 953.28 315.18 899.24 315.11 845.19 315.15 Z" />
<path fill="#110401" opacity="0.85" d=" M 1067.14 318.16 C 1068.92 315.76 1070.21 311.65 1073.89 311.99 C 1090.61 312.01 1107.34 311.99 1124.07 312.00 C 1126.36 311.69 1128.19 313.46 1128.37 315.68 C 1142.00 370.49 1155.64 425.30 1169.32 480.11 C 1169.90 482.71 1170.91 485.26 1171.01 487.96 C 1170.38 490.73 1167.23 490.76 1164.98 490.70 C 1150.35 490.60 1135.73 490.79 1121.11 490.62 C 1119.18 490.72 1117.95 488.97 1117.71 487.26 C 1114.71 474.51 1111.86 461.74 1108.84 449.00 C 1081.98 449.00 1055.13 449.00 1028.28 449.00 C 1021.09 460.54 1013.86 472.05 1006.65 483.58 C 1004.64 485.99 1003.77 490.56 1000.05 490.64 C 987.37 490.74 974.68 490.66 962.00 490.68 C 959.90 490.92 957.39 489.37 957.73 487.02 C 958.79 483.66 961.23 480.97 963.03 478.00 C 997.74 424.72 1032.47 371.46 1067.14 318.16 M 1073.08 315.09 C 1040.84 364.23 1008.89 413.57 976.77 462.78 C 971.57 471.05 965.82 478.99 960.98 487.47 C 974.05 487.54 987.13 487.37 1000.20 487.56 C 1009.13 473.88 1017.68 459.95 1026.28 446.06 C 1054.24 445.75 1082.21 445.96 1110.17 445.95 C 1111.92 445.57 1111.63 447.94 1112.12 448.94 C 1114.98 461.78 1118.03 474.58 1120.95 487.42 C 1136.56 487.58 1152.18 487.39 1167.80 487.51 C 1153.75 430.00 1139.26 372.60 1124.97 315.15 C 1107.67 315.10 1090.38 315.20 1073.08 315.09 Z" />
<path fill="#110401" opacity="0.85" d=" M 160.24 317.27 C 170.48 316.69 180.74 317.24 190.98 316.85 C 207.98 316.04 225.01 316.59 242.02 316.38 C 258.37 316.04 274.08 330.28 273.64 346.97 C 274.57 356.34 271.48 366.10 264.71 372.75 C 257.60 380.36 247.29 384.02 237.18 385.35 C 224.80 386.41 212.37 385.86 199.97 386.02 C 182.31 386.58 164.65 386.90 146.98 387.06 C 131.33 387.79 115.66 387.88 99.99 388.12 C 89.01 388.84 78.00 388.50 67.01 388.61 C 58.95 388.71 51.15 385.13 45.33 379.67 C 39.15 373.44 35.49 364.80 35.34 356.02 C 34.99 345.00 40.50 333.88 49.69 327.71 C 58.72 321.24 70.11 319.28 80.99 319.00 C 89.66 319.14 98.29 318.15 106.96 318.38 C 117.30 317.68 127.67 318.31 138.01 317.64 C 145.41 317.18 152.84 317.61 160.24 317.27 M 153.44 320.63 C 128.94 321.07 104.45 321.54 79.97 322.33 C 70.94 322.56 61.66 324.13 53.82 328.86 C 46.73 333.04 41.24 340.03 39.37 348.09 C 35.93 361.70 42.97 377.36 56.00 383.00 C 62.52 386.27 69.94 385.30 76.96 385.35 C 119.65 384.81 162.32 383.30 205.01 382.90 C 214.69 382.86 224.36 382.77 234.03 382.37 C 243.73 381.71 253.65 378.64 260.92 371.95 C 270.36 363.59 273.00 349.21 268.29 337.70 C 265.20 330.03 258.78 323.75 250.93 321.06 C 245.52 318.98 239.65 319.68 233.99 319.64 C 207.14 319.60 180.28 320.16 153.44 320.63 Z" />
<path fill="#110401" opacity="0.85" d=" M 1080.34 359.34 C 1083.34 354.95 1085.68 350.09 1089.14 346.03 C 1094.82 368.96 1100.16 391.98 1105.77 414.93 C 1106.35 417.20 1106.82 419.51 1107.20 421.84 C 1085.15 421.77 1063.09 421.81 1041.04 421.82 C 1054.01 400.92 1067.26 380.18 1080.34 359.34 M 1046.91 418.53 C 1065.72 418.40 1084.54 418.69 1103.35 418.38 C 1098.14 396.81 1093.07 375.20 1087.75 353.65 C 1074.10 375.25 1060.39 396.82 1046.91 418.53 Z" />
<path fill="#110401" opacity="0.85" d=" M 136.21 419.27 C 146.47 418.69 156.75 419.24 167.01 418.85 C 183.99 418.04 201.00 418.59 217.99 418.38 C 230.27 418.22 242.13 425.93 247.18 437.10 C 249.69 441.99 249.64 447.64 249.69 453.00 C 249.85 461.55 245.94 469.94 239.73 475.73 C 232.52 482.88 222.40 486.22 212.51 487.42 C 196.04 488.64 179.51 487.45 163.04 488.45 C 139.01 488.78 114.99 489.30 90.97 490.00 C 75.96 489.87 60.99 490.94 45.98 490.60 C 37.20 491.31 28.35 488.11 21.88 482.18 C 15.35 475.96 11.51 467.05 11.34 458.04 C 11.01 447.48 16.03 436.81 24.56 430.53 C 32.62 424.29 42.92 421.86 52.92 421.18 C 80.67 420.27 108.44 419.73 136.21 419.27 M 129.35 422.64 C 104.21 423.10 79.08 423.53 53.95 424.42 C 42.61 424.83 30.61 428.10 22.64 436.63 C 15.23 444.34 12.73 456.07 15.84 466.24 C 19.15 478.10 30.52 487.52 43.02 487.41 C 73.01 487.28 103.00 486.30 132.99 485.73 C 157.65 484.97 182.32 485.09 206.98 484.49 C 218.82 484.32 231.43 480.60 239.40 471.37 C 248.73 460.83 248.88 443.73 240.27 432.72 C 235.27 426.18 227.32 421.80 219.04 421.60 C 189.14 421.55 159.24 422.08 129.35 422.64 Z" />
</g>
<g id="#f05020ff">
<path fill="#f05020" opacity="1.00" d=" M 155.02 25.17 C 213.65 23.58 272.30 22.74 330.95 22.16 C 359.27 21.95 387.60 21.81 415.92 22.84 C 431.29 23.34 446.68 24.43 461.90 26.72 C 476.74 28.90 491.42 31.97 506.12 34.92 C 528.40 39.22 549.93 47.21 569.79 58.15 C 583.13 65.61 595.87 74.43 606.42 85.57 C 614.12 93.83 620.84 103.66 622.86 114.97 C 625.01 127.66 621.29 140.47 615.90 151.88 C 607.51 169.53 595.57 185.21 582.95 200.02 C 573.46 210.81 563.81 221.53 553.14 231.17 C 525.15 253.67 494.40 272.50 463.00 289.83 C 480.41 309.22 498.71 328.10 513.01 349.99 C 521.59 365.73 528.02 382.68 532.24 400.11 C 538.87 427.59 538.04 457.17 527.69 483.64 C 475.39 484.20 423.10 484.29 370.80 484.44 C 379.36 461.84 382.14 436.99 378.40 413.10 C 374.50 387.75 361.99 364.07 344.01 345.88 C 326.36 327.90 304.44 314.49 281.29 304.78 C 254.31 294.64 225.63 289.89 197.06 287.03 C 183.75 285.89 170.39 284.80 157.02 285.23 C 135.01 285.74 112.99 286.31 90.97 286.42 C 81.30 286.62 71.93 281.13 66.86 272.98 C 60.25 262.73 60.38 248.49 67.68 238.62 C 74.14 229.57 85.18 225.09 95.93 223.85 C 134.53 220.60 173.22 218.01 211.96 217.43 C 223.00 217.35 234.02 216.64 245.05 216.70 C 269.50 216.79 293.88 219.23 318.12 222.22 C 350.86 226.66 381.39 240.44 410.08 256.25 C 425.52 242.01 441.37 228.17 455.78 212.87 C 462.62 205.49 469.35 197.80 473.86 188.73 C 479.35 178.71 484.58 167.71 483.60 155.97 C 482.77 144.62 475.84 134.75 467.52 127.43 C 457.09 118.25 444.69 111.61 432.03 106.05 C 389.43 89.56 343.20 86.34 297.95 85.92 C 246.30 85.59 194.68 87.92 143.04 88.40 C 137.31 88.60 131.33 88.52 126.11 85.81 C 112.94 79.90 106.09 63.65 110.17 49.96 C 112.66 40.72 119.96 33.31 128.66 29.62 C 136.91 25.90 146.09 25.35 155.02 25.17 Z" />
<path fill="#f05020" opacity="1.00" d=" M 717.23 81.74 C 730.04 81.58 742.86 81.67 755.67 81.69 C 766.12 139.14 776.72 196.55 787.19 253.99 C 775.69 254.02 764.20 253.98 752.70 254.01 C 750.23 240.15 747.98 226.26 745.58 212.39 C 724.80 212.36 704.02 212.43 683.25 212.36 C 676.74 226.20 670.45 240.13 664.00 254.00 C 654.26 253.99 644.52 254.01 634.78 253.99 C 662.20 196.55 689.85 139.21 717.23 81.74 M 722.45 126.58 C 712.94 147.15 703.36 167.69 693.87 188.27 C 710.13 188.30 726.40 188.28 742.66 188.28 C 738.22 163.11 733.78 137.94 729.32 112.77 C 726.33 116.98 724.83 122.02 722.45 126.58 Z" />
<path fill="#f05020" opacity="1.00" d=" M 834.34 81.78 C 859.23 81.68 884.15 81.27 909.03 82.27 C 923.54 82.61 938.29 89.28 946.68 101.40 C 957.36 116.19 958.26 136.63 951.14 153.13 C 945.61 165.10 936.07 175.97 923.39 180.46 C 912.35 184.20 900.56 185.09 888.97 184.99 C 875.80 185.03 862.62 184.87 849.45 185.07 C 845.74 208.07 841.78 231.02 837.92 254.00 C 827.17 254.00 816.41 254.00 805.67 254.00 C 815.18 196.58 824.95 139.21 834.34 81.78 M 861.99 109.93 C 859.44 126.51 856.37 143.01 853.98 159.61 C 866.50 159.42 879.03 159.77 891.55 159.42 C 898.23 158.95 905.48 159.09 911.32 155.33 C 919.55 149.87 923.80 139.72 923.13 130.00 C 923.13 121.29 918.20 112.31 909.89 109.04 C 904.79 107.31 899.33 107.24 894.01 106.97 C 883.96 106.83 873.90 106.89 863.85 106.90 C 861.96 106.43 862.38 108.90 861.99 109.93 Z" />
<path fill="#f05020" opacity="1.00" d=" M 959.66 254.00 C 969.32 196.53 978.74 139.02 988.56 81.59 C 999.19 81.75 1009.82 81.60 1020.45 81.67 C 1010.92 139.12 1001.23 196.54 991.72 253.98 C 981.03 254.01 970.35 254.00 959.66 254.00 Z" />
<path fill="#f05020" opacity="1.00" d=" M 1058.03 83.98 C 1058.23 83.42 1058.63 82.30 1058.84 81.74 C 1076.22 81.56 1093.61 81.69 1111.00 81.68 C 1123.74 81.94 1137.24 82.81 1148.35 89.70 C 1158.90 95.92 1167.13 105.62 1172.13 116.75 C 1179.16 131.40 1181.15 147.96 1180.43 164.05 C 1179.62 184.52 1173.02 204.68 1161.75 221.76 C 1153.74 233.76 1142.22 243.54 1128.90 249.12 C 1117.46 253.34 1105.06 253.73 1093.01 253.99 C 1071.89 254.01 1050.78 254.00 1029.67 254.00 C 1039.10 197.32 1048.63 140.66 1058.03 83.98 M 1086.01 107.23 C 1079.05 147.45 1072.39 187.74 1065.63 228.00 C 1077.44 227.83 1089.28 228.40 1101.07 227.60 C 1110.29 227.02 1119.34 223.51 1126.04 217.06 C 1137.96 206.79 1142.83 191.05 1145.74 176.12 C 1148.45 160.23 1149.36 143.21 1143.05 128.02 C 1140.01 120.39 1134.20 113.59 1126.37 110.69 C 1113.50 105.72 1099.46 107.69 1086.01 107.23 Z" />
<path fill="#f05020" opacity="1.00" d=" M 200.44 119.63 C 227.28 119.16 254.12 118.60 280.96 118.64 C 287.12 118.63 293.58 117.96 299.35 120.61 C 311.27 125.28 318.70 138.38 317.45 151.01 C 317.08 159.81 312.20 168.11 305.14 173.24 C 298.21 178.36 289.60 180.77 281.10 181.36 C 271.40 181.78 261.69 181.86 251.99 181.90 C 208.99 182.30 166.02 183.84 123.02 184.36 C 116.54 184.33 109.72 185.14 103.66 182.28 C 91.57 177.39 84.21 163.88 85.70 151.07 C 86.55 141.47 92.52 132.72 100.78 127.89 C 108.63 123.13 117.94 121.55 127.00 121.33 C 151.47 120.54 175.96 120.07 200.44 119.63 Z" />
<path fill="#f05020" opacity="1.00" d=" M 153.44 320.63 C 180.28 320.16 207.14 319.60 233.99 319.64 C 239.65 319.68 245.52 318.98 250.93 321.06 C 258.78 323.75 265.20 330.03 268.29 337.70 C 273.00 349.21 270.36 363.59 260.92 371.95 C 253.65 378.64 243.73 381.71 234.03 382.37 C 224.36 382.77 214.69 382.86 205.01 382.90 C 162.32 383.30 119.65 384.81 76.96 385.35 C 69.94 385.30 62.52 386.27 56.00 383.00 C 42.97 377.36 35.93 361.70 39.37 348.09 C 41.24 340.03 46.73 333.04 53.82 328.86 C 61.66 324.13 70.94 322.56 79.97 322.33 C 104.45 321.54 128.94 321.07 153.44 320.63 Z" />
<path fill="#f05020" opacity="1.00" d=" M 129.35 422.64 C 159.24 422.08 189.14 421.55 219.04 421.60 C 227.32 421.80 235.27 426.18 240.27 432.72 C 248.88 443.73 248.73 460.83 239.40 471.37 C 231.43 480.60 218.82 484.32 206.98 484.49 C 182.32 485.09 157.65 484.97 132.99 485.73 C 103.00 486.30 73.01 487.28 43.02 487.41 C 30.52 487.52 19.15 478.10 15.84 466.24 C 12.73 456.07 15.23 444.34 22.64 436.63 C 30.61 428.10 42.61 424.83 53.95 424.42 C 79.08 423.53 104.21 423.10 129.35 422.64 Z" />
</g>
<g id="#9e0000ff">
<path fill="#9e0000" opacity="1.00" d=" M 689.23 315.17 C 737.28 315.07 785.33 315.20 833.37 315.11 C 831.57 324.23 829.41 333.28 827.20 342.31 C 793.55 342.25 759.91 342.32 726.27 342.27 C 722.77 357.77 718.87 373.20 715.83 388.79 C 743.75 388.68 771.68 388.76 799.60 388.75 C 797.91 397.31 795.70 405.77 793.94 414.32 C 765.86 414.67 737.77 414.21 709.69 414.55 C 704.24 438.85 698.63 463.12 693.13 487.41 C 678.82 487.57 664.50 487.43 650.18 487.48 C 663.06 430.01 676.28 372.62 689.23 315.17 Z" />
<path fill="#9e0000" opacity="1.00" d=" M 845.19 315.15 C 899.24 315.11 953.28 315.18 1007.33 315.11 C 1005.53 324.22 1003.33 333.25 1001.18 342.29 C 981.32 342.39 961.45 342.08 941.59 342.44 C 930.81 390.77 919.48 438.99 908.73 487.33 C 894.32 487.63 879.91 487.45 865.50 487.43 C 874.59 446.95 883.92 406.53 893.11 366.08 C 894.80 358.12 896.96 350.26 898.35 342.23 C 878.56 342.29 858.77 342.39 838.99 342.19 C 841.08 333.18 843.11 324.16 845.19 315.15 Z" />
<path fill="#9e0000" opacity="1.00" d=" M 1073.08 315.09 C 1090.38 315.20 1107.67 315.10 1124.97 315.15 C 1139.26 372.60 1153.75 430.00 1167.80 487.51 C 1152.18 487.39 1136.56 487.58 1120.95 487.42 C 1118.03 474.58 1114.98 461.78 1112.12 448.94 C 1111.63 447.94 1111.92 445.57 1110.17 445.95 C 1082.21 445.96 1054.24 445.75 1026.28 446.06 C 1017.68 459.95 1009.13 473.88 1000.20 487.56 C 987.13 487.37 974.05 487.54 960.98 487.47 C 965.82 478.99 971.57 471.05 976.77 462.78 C 1008.89 413.57 1040.84 364.23 1073.08 315.09 M 1080.34 359.34 C 1067.26 380.18 1054.01 400.92 1041.04 421.82 C 1063.09 421.81 1085.15 421.77 1107.20 421.84 C 1106.82 419.51 1106.35 417.20 1105.77 414.93 C 1100.16 391.98 1094.82 368.96 1089.14 346.03 C 1085.68 350.09 1083.34 354.95 1080.34 359.34 Z" />
</g>
</svg>
